<?xml version="1.0" encoding="UTF-8"?>
<svg xmlns="http://www.w3.org/2000/svg" width="800" height="600" viewBox="0 0 800 600">
  <defs>
    <linearGradient id="fur" x1="0" x2="1">
      <stop offset="0" stop-color="#f6d6a8"/>
      <stop offset="1" stop-color="#d99b6a"/>
    </linearGradient>
  </defs>
  <rect width="100%" height="100%" fill="#f0f4f8"/>
  <!-- Body -->
  <ellipse cx="420" cy="360" rx="220" ry="140" fill="url(#fur)" stroke="#b97a52" stroke-width="6"/>
  <!-- Head -->
  <circle cx="260" cy="260" r="90" fill="url(#fur)" stroke="#b97a52" stroke-width="6"/>
  <!-- Ears -->
  <path d="M210 205 L240 140 L270 205 Z" fill="#d99b6a" stroke="#b97a52" stroke-width="5"/>
  <path d="M310 205 L340 140 L370 205 Z" fill="#d99b6a" stroke="#b97a52" stroke-width="5"/>
  <!-- Eyes -->
  <ellipse cx="235" cy="265" rx="18" ry="26" fill="#fff"/>
  <ellipse cx="285" cy="265" rx="18" ry="26" fill="#fff"/>
  <circle cx="235" cy="270" r="7" fill="#2b2b2b"/>
  <circle cx="285" cy="270" r="7" fill="#2b2b2b"/>
  <!-- Nose and mouth -->
  <path d="M260 295 q8 10 20 0" stroke="#b14f3a" stroke-width="4" fill="none" stroke-linecap="round"/>
  <circle cx="260" cy="285" r="6" fill="#b14f3a"/>
  <!-- Whiskers -->
  <path d="M200 290 h-70" stroke="#6b6b6b" stroke-width="3" stroke-linecap="round"/>
  <path d="M200 305 h-70" stroke="#6b6b6b" stroke-width="3" stroke-linecap="round"/>
  <path d="M320 290 h70" stroke="#6b6b6b" stroke-width="3" stroke-linecap="round"/>
  <path d="M320 305 h70" stroke="#6b6b6b" stroke-width="3" stroke-linecap="round"/>
  <!-- Tail -->
  <path d="M600 360 q80 -20 120 40 q-30 10 -60 20 q-50 -40 -60 -60" fill="#d99b6a" stroke="#b97a52" stroke-width="6"/>
  <!-- Paws -->
  <ellipse cx="320" cy="460" rx="40" ry="22" fill="#d99b6a" stroke="#b97a52" stroke-width="5"/>
  <ellipse cx="500" cy="460" rx="40" ry="22" fill="#d99b6a" stroke="#b97a52" stroke-width="5"/>
  <!-- Subtle face markings -->
  <path d="M220 240 q40 10 80 0" stroke="#c88b5f" stroke-width="4" fill="none" stroke-linecap="round"/>
  <path d="M300 240 q40 10 80 0" stroke="#c88b5f" stroke-width="4" fill="none" stroke-linecap="round"/>
  <!-- Caption -->
  <text x="50%" y="560" font-family="Segoe UI, Arial" font-size="20" fill="#6b6b6b" text-anchor="middle">A friendly cat</text>
</svg>